<svg width="24" height="24" viewBox="0 0 24 24" fill="none" xmlns="http://www.w3.org/2000/svg">
<path d="M23.2002 12.02C23.2002 18.3713 18.0515 23.52 11.7002 23.52C5.3489 23.52 0.200195 18.3713 0.200195 12.02C0.200195 5.66872 5.3489 0.52002 11.7002 0.52002C18.0515 0.52002 23.2002 5.66872 23.2002 12.02ZM10.37 18.1092L18.9023 9.57692C19.192 9.28722 19.192 8.81742 18.9023 8.52772L17.853 7.47842C17.5633 7.18872 17.0935 7.18872 16.8037 7.47842L9.84539 14.4368L6.59669 11.1881C6.30689 10.8983 5.83709 10.8983 5.54739 11.1881L4.4981 12.2373C4.2084 12.527 4.2084 12.9968 4.4981 13.2865L9.32069 18.1091C9.61049 18.3989 10.0802 18.3989 10.37 18.1092Z" fill="#F8F8F8"/>
</svg>
