<svg width="88" height="39" viewBox="0 0 88 39" fill="none" xmlns="http://www.w3.org/2000/svg">
<path d="M7.9598 10.84H11.5198C11.5198 11.4533 11.4665 12.0133 11.3598 12.52C11.2798 13.0267 11.1065 13.48 10.8398 13.88C10.5998 14.2533 10.2665 14.5467 9.8398 14.76C9.41313 14.9733 8.86647 15.08 8.1998 15.08H7.9598V10.84ZM1.7998 10.6C1.7998 9.63998 1.9198 8.83998 2.1598 8.19998C2.42647 7.55998 2.77313 7.05331 3.1998 6.67998C3.65313 6.27998 4.18647 5.99998 4.7998 5.83998C5.41313 5.65331 6.06647 5.55998 6.7598 5.55998H7.1598V26.68C7.1598 27.32 7.02647 27.9067 6.7598 28.44C6.5198 28.9733 6.17313 29.4267 5.7198 29.8C5.29313 30.1733 4.77313 30.4667 4.1598 30.68C3.57313 30.8933 2.93313 31 2.2398 31H1.7998V10.6ZM13.2398 4.15998C13.2398 4.66665 13.1598 5.15998 12.9998 5.63998C12.8665 6.09331 12.6531 6.49331 12.3598 6.83998C12.0665 7.18665 11.6798 7.46665 11.1998 7.67998C10.7198 7.89331 10.1598 7.99998 9.5198 7.99998C8.9598 7.99998 8.4798 7.94664 8.0798 7.83998V6.47998C8.0798 5.89331 7.97313 5.38665 7.7598 4.95998C7.57313 4.53331 7.1998 4.31998 6.6398 4.31998C6.42647 4.31998 6.25313 4.34664 6.1198 4.39998C5.98647 4.45331 5.81313 4.54664 5.5998 4.67998C5.54647 4.51998 5.50647 4.34665 5.4798 4.15998C5.4798 3.97331 5.4798 3.69331 5.4798 3.31998C5.50647 3.02665 5.58647 2.71998 5.7198 2.39998C5.8798 2.05331 6.10648 1.74665 6.39981 1.47998C6.69314 1.18665 7.06647 0.946646 7.5198 0.759979C7.9998 0.573313 8.57313 0.47998 9.2398 0.47998C10.3865 0.47998 11.3331 0.826646 12.0798 1.51998C12.8531 2.21331 13.2398 3.09331 13.2398 4.15998Z" fill="white"/>
<path d="M20.6201 3.86401H21.0161C22.2641 3.86401 23.3081 4.20001 24.1481 4.87201C25.0121 5.54401 25.4441 6.61201 25.4441 8.07601V30H25.2281C24.6761 30 24.1241 29.928 23.5721 29.784C23.0441 29.64 22.5521 29.412 22.0961 29.1C21.6641 28.764 21.3041 28.344 21.0161 27.84C20.7521 27.312 20.6201 26.664 20.6201 25.896V3.86401Z" fill="white"/>
<path d="M68.6881 27.928C67.3921 27.928 66.3841 27.544 65.6641 26.776C64.9681 25.984 64.6201 24.832 64.6201 23.32V13.96C64.6201 12.544 64.9801 11.488 65.7001 10.792C66.4441 10.072 67.4761 9.71204 68.7961 9.71204C68.9161 9.71204 69.0241 9.72404 69.1201 9.74804C69.2161 9.74804 69.3241 9.74804 69.4441 9.74804V22.312C69.4441 22.6 69.4561 22.876 69.4801 23.14C69.5281 23.404 69.6001 23.644 69.6961 23.86C69.8161 24.052 69.9721 24.22 70.1641 24.364C70.3801 24.484 70.6681 24.544 71.0281 24.544C71.2201 24.544 71.4121 24.52 71.6041 24.472C71.8201 24.4 72.0121 24.292 72.1801 24.148C72.2761 24.34 72.3361 24.532 72.3601 24.724C72.3841 24.892 72.3961 25.072 72.3961 25.264C72.3961 26.032 72.0481 26.668 71.3521 27.172C70.6561 27.676 69.7681 27.928 68.6881 27.928ZM81.0721 13.852C81.0721 13.108 81.1921 12.484 81.4321 11.98C81.6961 11.452 82.0321 11.02 82.4401 10.684C82.8721 10.348 83.3521 10.108 83.8801 9.96404C84.4321 9.79604 84.9961 9.71204 85.5721 9.71204H85.8961V19.756C85.8961 21.7 85.4881 23.08 84.6721 23.896C83.8561 24.712 82.6561 25.12 81.0721 25.12V13.852ZM77.0761 27.928C74.2681 27.928 72.8641 26.392 72.8641 23.32V13.96C72.8641 12.544 73.2241 11.488 73.9441 10.792C74.6881 10.072 75.7201 9.71204 77.0401 9.71204C77.1601 9.71204 77.2681 9.72404 77.3641 9.74804C77.4601 9.74804 77.5681 9.74804 77.6881 9.74804V22.312C77.6881 22.6 77.7001 22.876 77.7241 23.14C77.7721 23.404 77.8441 23.644 77.9401 23.86C78.0601 24.052 78.2161 24.22 78.4081 24.364C78.6241 24.484 78.9121 24.544 79.2721 24.544C79.4641 24.544 79.6681 24.52 79.8841 24.472C80.1001 24.4 80.2801 24.292 80.4241 24.148C80.4961 24.316 80.5441 24.496 80.5681 24.688C80.6161 24.88 80.6401 25.048 80.6401 25.192C80.6401 26.08 80.2921 26.764 79.5961 27.244C78.9241 27.7 78.0841 27.928 77.0761 27.928Z" fill="white"/>
<path d="M57 16.5C57 22.8513 51.8513 28 45.5 28C39.1487 28 34 22.8513 34 16.5C34 10.1487 39.1487 5 45.5 5C51.8513 5 57 10.1487 57 16.5ZM44.1698 22.5892L52.7021 14.0569C52.9918 13.7672 52.9918 13.2974 52.7021 13.0077L51.6528 11.9584C51.3631 11.6687 50.8933 11.6687 50.6035 11.9584L43.6452 18.9168L40.3965 15.6681C40.1067 15.3783 39.6369 15.3783 39.3472 15.6681L38.2979 16.7173C38.0082 17.007 38.0082 17.4768 38.2979 17.7665L43.1205 22.5891C43.4103 22.8789 43.88 22.8789 44.1698 22.5892Z" fill="#089DA3"/>
</svg>
