<svg width="88" height="39" viewBox="0 0 88 39" fill="none" xmlns="http://www.w3.org/2000/svg">
<path d="M7.96 10.84H11.52C11.52 11.4533 11.4667 12.0133 11.36 12.52C11.28 13.0267 11.1067 13.48 10.84 13.88C10.6 14.2533 10.2667 14.5467 9.84 14.76C9.41333 14.9733 8.86667 15.08 8.2 15.08H7.96V10.84ZM1.8 10.6C1.8 9.64 1.92 8.84 2.16 8.2C2.42667 7.56 2.77333 7.05333 3.2 6.68C3.65333 6.28 4.18667 6 4.8 5.84C5.41333 5.65333 6.06667 5.56 6.76 5.56H7.16V26.68C7.16 27.32 7.02667 27.9067 6.76 28.44C6.52 28.9733 6.17333 29.4267 5.72 29.8C5.29333 30.1733 4.77333 30.4667 4.16 30.68C3.57333 30.8933 2.93333 31 2.24 31H1.8V10.6ZM13.24 4.16C13.24 4.66667 13.16 5.16 13 5.64C12.8667 6.09333 12.6533 6.49333 12.36 6.84C12.0667 7.18667 11.68 7.46667 11.2 7.68C10.72 7.89333 10.16 8 9.52 8C8.96 8 8.48 7.94666 8.08 7.84V6.48C8.08 5.89333 7.97333 5.38667 7.76 4.96C7.57333 4.53333 7.2 4.32 6.64 4.32C6.42667 4.32 6.25333 4.34666 6.12 4.4C5.98667 4.45333 5.81333 4.54666 5.6 4.68C5.54667 4.52 5.50667 4.34667 5.48 4.16C5.48 3.97333 5.48 3.69333 5.48 3.32C5.50667 3.02667 5.58667 2.72 5.72 2.4C5.88 2.05333 6.10667 1.74667 6.4 1.48C6.69333 1.18667 7.06667 0.946666 7.52 0.759998C8 0.573332 8.57333 0.48 9.24 0.48C10.3867 0.48 11.3333 0.826666 12.08 1.52C12.8533 2.21333 13.24 3.09333 13.24 4.16Z" fill="#003352"/>
<path d="M20.62 3.864H21.016C22.264 3.864 23.308 4.2 24.148 4.872C25.012 5.544 25.444 6.612 25.444 8.076V30H25.228C24.676 30 24.124 29.928 23.572 29.784C23.044 29.64 22.552 29.412 22.096 29.1C21.664 28.764 21.304 28.344 21.016 27.84C20.752 27.312 20.62 26.664 20.62 25.896V3.864Z" fill="#003352"/>
<path d="M68.688 27.928C67.392 27.928 66.384 27.544 65.664 26.776C64.968 25.984 64.62 24.832 64.62 23.32V13.96C64.62 12.544 64.98 11.488 65.7 10.792C66.444 10.072 67.476 9.712 68.796 9.712C68.916 9.712 69.024 9.724 69.12 9.748C69.216 9.748 69.324 9.748 69.444 9.748V22.312C69.444 22.6 69.456 22.876 69.48 23.14C69.528 23.404 69.6 23.644 69.696 23.86C69.816 24.052 69.972 24.22 70.164 24.364C70.38 24.484 70.668 24.544 71.028 24.544C71.22 24.544 71.412 24.52 71.604 24.472C71.82 24.4 72.012 24.292 72.18 24.148C72.276 24.34 72.336 24.532 72.36 24.724C72.384 24.892 72.396 25.072 72.396 25.264C72.396 26.032 72.048 26.668 71.352 27.172C70.656 27.676 69.768 27.928 68.688 27.928ZM81.072 13.852C81.072 13.108 81.192 12.484 81.432 11.98C81.696 11.452 82.032 11.02 82.44 10.684C82.872 10.348 83.352 10.108 83.88 9.964C84.432 9.796 84.996 9.712 85.572 9.712H85.896V19.756C85.896 21.7 85.488 23.08 84.672 23.896C83.856 24.712 82.656 25.12 81.072 25.12V13.852ZM77.076 27.928C74.268 27.928 72.864 26.392 72.864 23.32V13.96C72.864 12.544 73.224 11.488 73.944 10.792C74.688 10.072 75.72 9.712 77.04 9.712C77.16 9.712 77.268 9.724 77.364 9.748C77.46 9.748 77.568 9.748 77.688 9.748V22.312C77.688 22.6 77.7 22.876 77.724 23.14C77.772 23.404 77.844 23.644 77.94 23.86C78.06 24.052 78.216 24.22 78.408 24.364C78.624 24.484 78.912 24.544 79.272 24.544C79.464 24.544 79.668 24.52 79.884 24.472C80.1 24.4 80.28 24.292 80.424 24.148C80.496 24.316 80.544 24.496 80.568 24.688C80.616 24.88 80.64 25.048 80.64 25.192C80.64 26.08 80.292 26.764 79.596 27.244C78.924 27.7 78.084 27.928 77.076 27.928Z" fill="#003352"/>
<path d="M57 16.5C57 22.8513 51.8513 28 45.5 28C39.1487 28 34 22.8513 34 16.5C34 10.1487 39.1487 5 45.5 5C51.8513 5 57 10.1487 57 16.5ZM44.1698 22.5892L52.7021 14.0569C52.9918 13.7672 52.9918 13.2974 52.7021 13.0077L51.6528 11.9584C51.3631 11.6687 50.8933 11.6687 50.6035 11.9584L43.6452 18.9168L40.3965 15.6681C40.1067 15.3783 39.6369 15.3783 39.3472 15.6681L38.2979 16.7173C38.0082 17.007 38.0082 17.4768 38.2979 17.7665L43.1205 22.5891C43.4103 22.8789 43.88 22.8789 44.1698 22.5892V22.5892Z" fill="#089DA3"/>
</svg>
