<svg width="75" height="41" viewBox="0 0 75 41" fill="none" xmlns="http://www.w3.org/2000/svg">
<path d="M7.96 10.84H11.52C11.52 11.4533 11.4667 12.0133 11.36 12.52C11.28 13.0267 11.1067 13.48 10.84 13.88C10.6 14.2533 10.2667 14.5467 9.84 14.76C9.41333 14.9733 8.86667 15.08 8.2 15.08H7.96V10.84ZM1.8 10.6C1.8 9.64 1.92 8.84 2.16 8.2C2.42667 7.56 2.77333 7.05333 3.2 6.68C3.65333 6.28 4.18667 6 4.8 5.84C5.41333 5.65333 6.06667 5.56 6.76 5.56H7.16V26.68C7.16 27.32 7.02667 27.9067 6.76 28.44C6.52 28.9733 6.17333 29.4267 5.72 29.8C5.29333 30.1733 4.77333 30.4667 4.16 30.68C3.57333 30.8933 2.93333 31 2.24 31H1.8V10.6ZM13.24 4.16C13.24 4.66667 13.16 5.16 13 5.64C12.8667 6.09333 12.6533 6.49333 12.36 6.84C12.0667 7.18667 11.68 7.46667 11.2 7.68C10.72 7.89333 10.16 8 9.52 8C8.96 8 8.48 7.94666 8.08 7.84V6.48C8.08 5.89333 7.97333 5.38667 7.76 4.96C7.57333 4.53333 7.2 4.32 6.64 4.32C6.42667 4.32 6.25333 4.34666 6.12 4.4C5.98667 4.45333 5.81333 4.54666 5.6 4.68C5.54667 4.52 5.50667 4.34667 5.48 4.16C5.48 3.97333 5.48 3.69333 5.48 3.32C5.50667 3.02667 5.58667 2.72 5.72 2.4C5.88 2.05333 6.10667 1.74667 6.4 1.48C6.69333 1.18667 7.06667 0.946666 7.52 0.759998C8 0.573332 8.57333 0.48 9.24 0.48C10.3867 0.48 11.3333 0.826666 12.08 1.52C12.8533 2.21333 13.24 3.09333 13.24 4.16Z" fill="#003352"/>
<path d="M19.62 3.864H20.016C21.264 3.864 22.308 4.2 23.148 4.872C24.012 5.544 24.444 6.612 24.444 8.076V30H24.228C23.676 30 23.124 29.928 22.572 29.784C22.044 29.64 21.552 29.412 21.096 29.1C20.664 28.764 20.304 28.344 20.016 27.84C19.752 27.312 19.62 26.664 19.62 25.896V3.864Z" fill="#003352"/>
<path d="M38.444 24.384C38.444 24.672 38.456 24.948 38.48 25.212C38.528 25.476 38.6 25.716 38.696 25.932C38.816 26.124 38.972 26.292 39.164 26.436C39.38 26.556 39.668 26.616 40.028 26.616C40.22 26.616 40.412 26.592 40.604 26.544C40.82 26.472 41.012 26.364 41.18 26.22C41.276 26.412 41.336 26.604 41.36 26.796C41.384 26.964 41.396 27.144 41.396 27.336C41.396 28.104 41.072 28.74 40.424 29.244C39.776 29.748 38.996 30 38.084 30C36.644 30 35.54 29.616 34.772 28.848C34.004 28.08 33.62 27.12 33.62 25.968V15.96C33.62 15.168 33.764 14.508 34.052 13.98C34.364 13.428 34.748 12.984 35.204 12.648C35.684 12.312 36.2 12.072 36.752 11.928C37.328 11.784 37.892 11.712 38.444 11.712V24.384ZM46.652 25.752C46.652 26.592 46.496 27.288 46.184 27.84C45.896 28.368 45.512 28.8 45.032 29.136C44.576 29.448 44.06 29.676 43.484 29.82C42.908 29.94 42.356 30 41.828 30V17.328C41.828 17.04 41.804 16.764 41.756 16.5C41.732 16.236 41.66 16.008 41.54 15.816C41.444 15.6 41.288 15.432 41.072 15.312C40.88 15.168 40.604 15.096 40.244 15.096C40.052 15.096 39.848 15.132 39.632 15.204C39.44 15.252 39.26 15.348 39.092 15.492C38.996 15.3 38.936 15.12 38.912 14.952C38.888 14.76 38.876 14.568 38.876 14.376C38.876 13.608 39.2 12.972 39.848 12.468C40.496 11.964 41.276 11.712 42.188 11.712C43.628 11.712 44.732 12.084 45.5 12.828C46.268 13.548 46.652 14.592 46.652 15.96V25.752Z" fill="#003352"/>
<path d="M69.8125 10.7187L69.8125 29.4062C69.8125 29.8034 70.1341 30.125 70.5312 30.125L73.4062 30.125C73.8034 30.125 74.125 29.8034 74.125 29.4062L74.125 10.7188C74.125 10.3216 73.8034 10 73.4062 10L70.5312 10C70.1341 10 69.8125 10.3216 69.8125 10.7187ZM66.2187 32.2812L66.2187 13.5937C66.2187 13.1966 65.8971 12.875 65.5 12.875L62.625 12.875C62.2279 12.875 61.9062 13.1966 61.9062 13.5937L61.9062 32.2812C61.9062 32.6784 62.2279 33 62.625 33L65.5 33C65.8971 33 66.2187 32.6784 66.2187 32.2812ZM58.3125 29.4062L58.3125 10.7187C58.3125 10.3216 57.9909 10 57.5938 10L54.7188 10C54.3216 10 54 10.3216 54 10.7187L54 29.4062C54 29.8034 54.3216 30.125 54.7187 30.125L57.5937 30.125C57.9909 30.125 58.3125 29.8034 58.3125 29.4062Z" fill="#003352"/>
</svg>
